HIERARCHY
ROOT Hips
{
  OFFSET 0 0 0
  CHANNELS 6 Xposition Yposition Zposition Zrotation Yrotation Xrotation
  JOINT LeftThigh
  {
    OFFSET 8.409438 0 -5.917753
    CHANNELS 3 Zrotation Yrotation Xrotation
    JOINT LeftLeg
    {
      OFFSET 0 0 -42.358652
      CHANNELS 3 Zrotation Yrotation Xrotation
      JOINT LeftFoot
      {
        OFFSET 0 0 -39.357303
        CHANNELS 3 Zrotation Yrotation Xrotation
      }
    }
  }
  JOINT RightThigh
  {
    OFFSET -8.409438 0 -5.917753
    CHANNELS 3 Zrotation Yrotation Xrotation
    JOINT RightLeg
    {
      OFFSET 0 0 -42.358652
      CHANNELS 3 Zrotation Yrotation Xrotation
      JOINT RightFoot
      {
        OFFSET 0 0 -39.357303
        CHANNELS 3 Zrotation Yrotation Xrotation
      }
    }
  }
  JOINT SpineLow
  {
    OFFSET 0 0 4.719101
    CHANNELS 3 Zrotation Yrotation Xrotation
    JOINT SpineMid
    {
      OFFSET 0 0 12.899191
      CHANNELS 3 Zrotation Yrotation Xrotation
      JOINT Chest
      {
        OFFSET 0 0 12.899191
        CHANNELS 3 Zrotation Yrotation Xrotation
        JOINT LeftShoulder
        {
          OFFSET 7.550562 1.41573 9.438202
          CHANNELS 3 Zrotation Yrotation Xrotation
          JOINT LeftArm
          {
            OFFSET 9.155056 0 4.247191
            CHANNELS 3 Zrotation Yrotation Xrotation
            JOINT LeftForearm
            {
              OFFSET 0 0 25.771955
              CHANNELS 3 Zrotation Yrotation Xrotation
              JOINT LeftHand
              {
                OFFSET 0 0 25.197169
                CHANNELS 3 Zrotation Yrotation Xrotation
              }
            }
          }
        }
        JOINT RightShoulder
        {
          OFFSET -7.550562 1.41573 9.438202
          CHANNELS 3 Zrotation Yrotation Xrotation
          JOINT RightArm
          {
            OFFSET -9.155056 0 4.247191
            CHANNELS 3 Zrotation Yrotation Xrotation
            JOINT RightForearm
            {
              OFFSET 0 0 -25.771955
              CHANNELS 3 Zrotation Yrotation Xrotation
              JOINT RightHand
              {
                OFFSET 0 0 -25.197169
                CHANNELS 3 Zrotation Yrotation Xrotation
              }
            }
          }
        }
        JOINT Neck
        {
          OFFSET 0 0 15.101124
          CHANNELS 3 Zrotation Yrotation Xrotation
          JOINT Head
          {
            OFFSET 0 0 11.325843
            CHANNELS 3 Zrotation Yrotation Xrotation
            End Site
            {
              OFFSET 0 0 14.157303
            }
          }
        }
      }
    }
  }
}
MOTION
Frames: 17
Frame Time: 0.01
0.0  101.685394  0.0  -0.29616  -13.883251  -104.180512  40.214988  -26.130213  -0.369829  -4.75681  7.682929  37.47736  9.154416  4.408079  4.081788  -2.797268  10.517685  -10.898498  10.283693  1.59025  33.175329  7.590013  4.49445  -1.881354  -0.463281  -1.304002  2.453308  -1.398337  -3.512975  6.736448  -1.398337  -3.512975  6.736448  -10.629307  28.95644  6.495282  80.286259  68.432686  156.046167  -32.042162  -3.027335  102.233272  69.69386  18.123699  -29.197613  20.808919  -7.404822  31.883506  57.415891  59.282932  -29.98266  -12.859071  -31.06818  -98.522111  54.202653  -6.433258  7.906722  12.025981  5.454029  -4.789601  9.056149  3.998469  -3.698803  
0.0  101.685394  0.0  -0.340404  -12.671514  -104.008443  39.664987  -25.987712  -0.870128  -4.909253  8.005805  37.851813  8.85945  4.410064  3.937604  -3.590424  10.707257  -11.118987  10.535362  1.589099  33.64274  7.182587  4.559199  -1.89932  -0.503772  -1.245289  2.34109  -1.497262  -3.351253  6.429865  -1.497262  -3.351252  6.429864  -11.230716  28.881409  7.333983  80.132361  68.319567  156.065214  -32.080758  -5.71286  103.015349  67.259783  19.277134  -29.770133  20.210848  -7.634719  31.941004  56.791943  59.222379  -30.389891  -12.486226  -30.169713  -99.282239  52.855895  -6.196098  8.01793  11.699662  5.193766  -4.597999  8.808461  3.80927  -3.547356  
0.0  101.685394  0.0  -0.417177  -11.070453  -103.674246  38.93437  -25.741472  -1.557523  -5.234077  8.468114  38.171219  8.668591  4.412658  3.838469  -4.83805  10.823748  -11.375892  10.943079  1.690379  33.974002  6.816401  4.626458  -1.884811  -0.597452  -1.197823  2.265532  -1.74491  -3.214612  6.226318  -1.74491  -3.214611  6.226319  -11.864587  28.785697  7.637898  80.036006  68.137861  156.346002  -32.254331  -8.070259  103.470242  65.057443  20.31655  -30.174452  19.750615  -7.679733  31.580136  56.507036  59.327088  -30.443942  -12.382644  -29.257272  -100.038234  51.570088  -6.032358  7.812435  11.386354  5.048205  -4.603954  8.572901  3.702203  -3.546466  
0.0  101.685394  0.0  -0.428391  -9.042573  -103.196509  38.048365  -25.307279  -2.407475  -5.815442  9.061716  38.411669  8.582688  4.390551  3.718919  -6.458397  11.004166  -11.586397  11.369666  1.912038  34.093128  6.134176  4.718112  -1.933436  -0.791705  -1.156075  2.200053  -2.268681  -3.084581  6.054814  -2.268681  -3.084581  6.054815  -12.411583  28.775417  7.544858  80.390185  68.020936  157.067411  -32.475242  -9.889927  103.627231  63.252558  21.272623  -30.301062  19.685995  -7.511807  31.066463  56.281107  59.613617  -30.347601  -12.332111  -28.698021  -100.92774  50.743277  -6.00446  7.470597  11.231569  5.028382  -4.733567  8.457874  3.686085  -3.641981  
0.0  101.685394  0.0  -0.396882  -6.53644  -102.6579  36.973743  -24.748741  -3.354567  -6.474266  9.675266  38.679802  8.571626  4.406016  3.648135  -8.477993  11.144097  -11.636865  11.755671  2.373073  33.989658  5.877847  4.752476  -1.979221  -1.054086  -1.121453  2.149338  -2.980142  -2.968235  5.926304  -2.980143  -2.968235  5.926304  -13.019288  28.842663  7.11143  81.181491  67.947157  158.241594  -32.489216  -11.084482  103.575188  61.890269  22.148781  -30.27252  19.729283  -7.16386  30.417937  56.05951  59.988333  -30.223835  -12.113566  -28.502437  -102.131878  50.379545  -6.086157  7.277243  11.087716  5.099435  -5.016837  8.352889  3.735374  -3.854384  
0.0  101.685394  0.0  -0.466155  -3.520513  -102.121428  35.745828  -24.229798  -4.425746  -7.281038  10.333289  38.898428  8.373828  4.34419  3.39941  -10.72115  11.191886  -11.395974  11.887025  3.108493  33.601704  5.404895  4.935645  -2.069832  -1.392892  -1.097954  2.141904  -3.903416  -2.873938  5.919161  -3.903416  -2.873938  5.919161  -13.82862  28.935805  6.200907  82.429906  67.887869  159.83959  -32.166919  -12.071847  103.203806  60.646896  22.827236  -30.213994  20.004929  -6.704155  29.506751  55.760949  60.517656  -29.994127  -11.786507  -28.52846  -103.716447  50.199223  -6.218527  7.218677  10.938291  5.161193  -5.539141  8.245829  3.773621  -4.245754  
0.0  101.685394  0.0  -0.819672  0.110206  -101.565922  34.348687  -23.910504  -5.772751  -8.17341  11.031038  39.024572  8.083551  4.245067  3.186747  -13.08571  11.122731  -10.846255  11.599009  3.901449  32.935722  4.971792  5.12259  -2.151646  -1.835103  -1.120323  2.152404  -5.114243  -2.894182  5.968049  -5.114243  -2.894182  5.968049  -14.660549  29.204391  4.986146  83.909873  67.802298  161.786081  -31.462714  -13.03978  102.389507  59.501112  23.197008  -30.133679  20.615777  -6.138395  28.523878  55.096042  61.22397  -29.799765  -11.225622  -28.744017  -105.677198  50.137283  -6.240603  7.298659  10.798616  5.149616  -6.169755  8.146569  3.75511  -4.717151  
0.0  101.685394  0.0  -1.451176  4.282719  -101.195136  32.880699  -23.907969  -7.215405  -9.193671  11.731713  38.934916  7.445564  4.077736  2.930403  -15.241384  10.980607  -9.815861  10.641728  4.709683  32.044986  4.437289  5.280256  -2.244193  -2.330532  -1.151287  2.150087  -6.470795  -2.933601  5.985362  -6.470795  -2.933601  5.985362  -15.47615  29.592714  3.827547  84.733546  67.435161  163.246686  -30.779266  -13.962428  101.199109  58.565878  23.221125  -29.812104  21.406053  -5.794415  27.574059  53.811473  61.929157  -29.601873  -10.334197  -28.971254  -108.11437  50.155146  -6.108839  7.428783  10.520733  4.896959  -6.678419  7.940466  3.559571  -5.092028  
0.0  101.685394  0.0  -2.2355  8.769627  -101.04811  31.626355  -24.171914  -8.574661  -10.414894  12.434227  38.482155  6.639584  3.868447  2.683911  -16.639833  10.942353  -8.345848  8.817146  5.336837  31.017479  3.728955  5.405889  -2.338898  -2.828756  -1.126394  2.067301  -7.826371  -2.829831  5.776856  -7.82637  -2.829831  5.776856  -15.829075  29.89558  3.313171  84.700345  66.47245  164.261414  -30.417443  -15.058395  99.702908  57.824696  22.685892  -29.140216  22.114378  -6.007709  26.948678  52.282631  62.592503  -29.120743  -9.368893  -28.928938  -110.881588  50.206057  -5.845268  7.406538  10.204859  4.195119  -6.70492  7.697398  3.035858  -5.098283  
0.0  101.685394  0.0  -2.956868  13.569215  -101.081456  30.537315  -24.475991  -9.610484  -11.958444  13.175738  37.550784  5.930128  3.64711  2.444195  -17.103296  11.317118  -6.647147  6.053511  5.552245  29.993147  2.830461  5.438888  -2.421799  -3.307367  -1.034791  1.944165  -9.12107  -2.554751  5.446678  -9.121071  -2.554751  5.446679  -15.968819  29.854529  2.962086  85.267719  64.573801  166.411098  -30.279986  -16.724019  97.803469  57.311659  21.276004  -28.272116  22.674141  -6.534831  26.411081  50.446158  63.209602  -28.686425  -8.608103  -29.022301  -113.452567  50.533885  -5.695768  7.106025  9.606308  3.293273  -6.467814  7.238583  2.369315  -4.902773  
0.0  101.685394  0.0  -3.53833  18.525746  -101.373304  29.50767  -24.720668  -10.108796  -13.881568  13.951136  36.163346  5.312599  3.436965  2.089583  -16.976933  11.91156  -4.781569  2.804714  5.523415  29.035447  1.836743  5.409416  -2.465441  -3.768362  -0.924523  1.870679  -10.368543  -2.227308  5.244767  -10.368543  -2.227307  5.244766  -15.535813  29.61072  2.336404  87.012486  61.843705  170.2411  -29.933077  -17.66025  96.047176  57.749548  19.165914  -27.902905  23.504168  -6.698948  25.758022  47.398218  63.770253  -29.234412  -7.499973  -29.122686  -115.959865  51.384358  -5.592293  6.883383  8.800882  2.416588  -6.248443  6.625218  1.723099  -4.721616  
0.0  101.685394  0.0  -3.976431  23.517356  -101.788441  28.512518  -24.830309  -10.134493  -16.148362  14.693283  34.343339  4.668192  3.189385  1.627622  -16.779406  12.597357  -2.912123  -0.478161  5.363356  28.074281  0.790333  5.29631  -2.469741  -4.228754  -0.929688  1.792816  -11.624588  -2.217851  5.047313  -11.624589  -2.217851  5.047313  -14.338067  30.179897  1.626255  89.474226  59.253877  174.334089  -29.780412  -15.139744  95.268224  60.386212  17.127118  -28.341132  24.573795  -5.563431  25.414206  43.263661  64.359316  -30.832097  -6.222673  -29.457473  -118.914657  52.944297  -6.089484  7.087195  7.95336  2.167834  -6.001758  5.986286  1.548258  -4.529913  
0.0  101.685394  0.0  -4.300509  28.719646  -102.201431  27.19203  -24.776625  -9.743346  -18.565348  15.295643  32.068557  4.055607  2.941974  1.269969  -16.901483  13.330015  -1.176894  -3.813646  5.204358  27.116919  -0.091659  5.132815  -2.470458  -4.680098  -0.953454  1.663953  -12.855982  -2.272344  4.714518  -12.855982  -2.272344  4.714518  -12.396239  30.783639  1.467434  93.290989  56.402932  178.635231  -29.315128  -8.886357  96.009158  64.792012  15.164432  -30.095531  25.709468  -3.800725  25.103299  37.800403  64.613281  -33.896987  -5.190439  -28.55658  -122.097034  54.384362  -6.876916  8.439921  7.071052  2.204614  -5.683113  5.323687  1.588124  -4.288006  
0.0  101.685394  0.0  -4.410168  33.664029  -102.551978  25.695708  -24.648781  -8.862555  -20.511377  15.584123  29.561075  3.390584  2.639221  1.013043  -17.070619  14.171462  0.501541  -7.041927  5.016502  26.090258  -0.698259  4.930492  -2.51592  -4.994618  -0.913503  1.558331  -13.709241  -2.162642  4.428317  -13.709241  -2.162642  4.428317  -10.224374  30.836345  1.615341  98.592453  53.074029  -176.381555  -26.097686  -2.499184  97.45418  68.386874  14.274607  -33.111738  26.468467  -2.088318  24.18767  31.181452  64.316992  -38.291955  -4.933247  -26.135354  -123.933751  56.321613  -6.904982  9.864363  5.934113  2.21873  -5.454817  4.47026  1.611419  -4.112612  
0.0  101.685394  0.0  -4.320102  38.32572  -102.582703  23.739524  -24.34016  -7.761819  -21.740224  15.658004  27.027581  2.471115  2.314773  0.795782  -18.045453  14.93974  1.881851  -9.504677  4.955847  24.841253  -0.983751  4.707707  -2.619443  -4.95049  -0.790568  1.44562  -13.576724  -1.854597  4.094845  -13.576724  -1.854597  4.094845  -9.484769  30.053954  2.106482  104.102383  50.636765  -172.577319  -22.44357  2.525518  99.047153  68.669423  11.520763  -34.561175  25.394605  -1.026184  22.634894  26.043313  65.300973  -41.601444  -7.55961  -22.261858  -124.520157  59.287722  -6.213564  11.965553  3.783479  2.032199  -5.20685  2.854877  1.492114  -3.91749  
0.0  101.685394  0.0  -4.168928  42.497806  -102.491841  21.303058  -23.982212  -6.680391  -22.03292  15.543565  24.873513  1.917044  1.987828  0.807339  -20.22808  15.568457  3.035655  -10.710024  5.020361  23.27025  -1.079461  4.430061  -2.718195  -4.450531  -0.649705  1.490964  -12.20178  -1.494523  4.179515  -12.201781  -1.494523  4.179516  -10.964016  28.119476  2.287989  109.004726  48.794033  -169.719339  -19.343164  6.817695  100.93461  67.910908  8.10003  -35.17939  22.016123  -0.148982  19.923704  19.702439  67.632207  -45.713774  -12.986498  -18.17227  -122.984807  62.74657  -5.615288  13.656852  0.376341  1.77861  -5.350167  0.297836  1.330785  -4.0134  
0.0  101.685394  0.0  -3.831576  45.732708  -102.229886  19.086013  -23.325028  -5.650723  -21.716024  15.070606  23.236695  -0.175053  1.632531  0.168076  -22.693523  16.288366  3.875508  -11.033305  5.075454  21.703157  -1.125308  3.959329  -2.790447  -3.543758  -0.628703  1.968626  -9.731716  -1.425007  5.460566  -9.731716  -1.425007  5.460566  -14.819435  25.223161  -0.3541  112.383385  47.101322  -168.376073  -17.613023  12.250786  102.356191  67.235226  2.870187  -33.263011  16.731027  1.488357  14.59701  11.047552  70.713841  -51.49739  -20.024681  -12.850728  -120.745696  66.383495  -4.367271  17.300621  -3.905453  1.601896  -6.935039  -2.911162  1.245989  -5.190955  
